<?xml version="1.0" encoding="utf-8" standalone="yes"?>
<!DOCTYPE svg PUBLIC "-//W3C//DTD SVG 1.1//EN" "http://www.w3.org/Graphics/SVG/1.1/DTD/svg11.dtd">
<svg style="fill:none;stroke:none;fill-rule:evenodd;clip-rule:evenodd;stroke-linecap:round;stroke-linejoin:round;stroke-miterlimit:1.5;" version="1.1" xmlns="http://www.w3.org/2000/svg" xmlns:xlink="http://www.w3.org/1999/xlink" width="1044" height="625" viewBox="0 0 1044 625"><style class="text-font-style fontImports" data-font-family="Roboto">@import url(https://fonts.googleapis.com/css2?family=Roboto:wght@400;700&amp;amp;display=block);</style><g id="items" style="isolation: isolate"><g id="blend" style="mix-blend-mode: normal"><g id="g-root-cp_2_Frame_6_1d1qtvm1ng083n-fill" data-item-order="-445651" transform="translate(486.6842041015625, 255)"></g><g id="g-root-cp_1_g-1_1463tmq1ng08wc-fill" data-item-order="-445627" transform="translate(318.6842041015625, 339)"></g><g id="g-root-cp_1_line_1463tmq1ng08wd-fill" data-item-order="-445615" transform="translate(485.6842041015625, 398)"></g><g id="g-root-cp_3_g-3_zqabia1ng09om-fill" data-item-order="-445605" transform="translate(535.6842041015625, 338)"></g><g id="g-root-cp_3_line_3_qv9sci1ng07bj-fill" data-item-order="-445583" transform="translate(535.6842041015625, 398)"></g><g id="g-root-sy_2_line-2_vb3agy1ng07b4-fill" data-item-order="-445575" transform="translate(510.6842041015625, 314)"></g><g id="g-root-tx_2ndmovem_4osqte1ng07b6-fill" data-item-order="0" transform="translate(420.6842041015625, 142)"><g id="tx_2ndmovem_4osqte1ng07b6-fill-merged" stroke="none" fill="#4f91fc" fill-opacity="1"><g><text style="font: 20px Roboto, sans-serif; white-space: pre;" font-size="20px" font-family="Roboto, sans-serif"><tspan x="12" y="33.5" dominant-baseline="ideographic">2nd Movement Form</tspan></text></g></g></g><g id="g-root-tx_selectda_1uu9sjm1ng07wr-fill" data-item-order="0" transform="translate(408.6842041015625, 178)"><g id="tx_selectda_1uu9sjm1ng07wr-fill-merged" stroke="none" fill="#dd57a8" fill-opacity="1"><g><text style="font: 15px Roboto, sans-serif; white-space: pre;" font-size="15px" font-family="Roboto, sans-serif"><tspan x="12" y="30.5" dominant-baseline="ideographic">Select Da Capo Aria or Ternary </tspan><tspan x="12" y="48.5" dominant-baseline="ideographic">Form for a slow and song-like </tspan><tspan x="12" y="66.5" dominant-baseline="ideographic">interlude.</tspan></text></g></g></g><g id="g-root-ic_1_1hita6a1ng09ho-fill" data-item-order="0" transform="translate(498.6842041015625, 267)"></g><g id="g-root-tx_1stmovem_1ums6o21nfks20-fill" data-item-order="0" transform="translate(101.6842041015625, 338)"><g id="tx_1stmovem_1ums6o21nfks20-fill-merged" stroke="none" fill="#fb6762" fill-opacity="1"><g><text style="font: 20px Roboto, sans-serif; white-space: pre;" font-size="20px" font-family="Roboto, sans-serif"><tspan x="20.78" y="33.5" dominant-baseline="ideographic">1st Movement Form</tspan></text></g></g></g><g id="g-root-ic_1_1hbboaq1nfktmy-fill" data-item-order="0" transform="translate(329.6842041015625, 350)"></g><g id="g-root-ic_shee_90vhky1ng083n-fill" data-item-order="0" transform="translate(667.6842041015625, 350)"></g><g id="g-root-tx_3rdmovem_1cwr7ia1nfm77o-fill" data-item-order="0" transform="translate(739.6842041015625, 338)"><g id="tx_3rdmovem_1cwr7ia1nfm77o-fill-merged" stroke="none" fill="#43dd93" fill-opacity="1"><g><text style="font: 20px Roboto, sans-serif; white-space: pre;" font-size="20px" font-family="Roboto, sans-serif"><tspan x="12" y="33.5" dominant-baseline="ideographic">3rd Movement Form</tspan></text></g></g></g><g id="g-root-tx_choosebe_1q6yojm1nfksu9-fill" data-item-order="0" transform="translate(53.6842041015625, 374)"><g id="tx_choosebe_1q6yojm1nfksu9-fill-merged" stroke="none" fill="#dd57a8" fill-opacity="1"><g><text style="font: 15px Roboto, sans-serif; white-space: pre;" font-size="15px" font-family="Roboto, sans-serif"><tspan x="13.59" y="30.5" dominant-baseline="ideographic">Choose between Ritornello Form or </tspan><tspan x="32.36" y="48.5" dominant-baseline="ideographic">Fugue for a brisk and purposeful </tspan><tspan x="190.47" y="66.5" dominant-baseline="ideographic">opening.</tspan></text></g></g></g><g id="g-root-tx_decidebe_qqa5z61nfm6fh-fill" data-item-order="0" transform="translate(739.6842041015625, 374)"><g id="tx_decidebe_qqa5z61nfm6fh-fill-merged" stroke="none" fill="#dd57a8" fill-opacity="1"><g><text style="font: 15px Roboto, sans-serif; white-space: pre;" font-size="15px" font-family="Roboto, sans-serif"><tspan x="12" y="30.5" dominant-baseline="ideographic">Decide between Ritornello Form or </tspan><tspan x="12" y="48.5" dominant-baseline="ideographic">Fugue for a fast and cheerful </tspan><tspan x="12" y="66.5" dominant-baseline="ideographic">conclusion.</tspan></text></g></g></g><g id="g-root-tx_v7denj1p3ml1c-fill" data-item-order="0" transform="translate(387.0000305175781, 494.74853515625)"><g id="tx_v7denj1p3ml1c-fill-merged" stroke="none" fill="#dd57a8" fill-opacity="1"><g><text style="font: 30px Roboto, sans-serif; white-space: pre;" font-size="30px" font-family="Roboto, sans-serif"><tspan x="17.36" y="63.5" dominant-baseline="ideographic">Concerto Grosso</tspan></text></g></g></g><g id="g-root-cp_2_Frame_6_1d1qtvm1ng083n-stroke" data-item-order="-445651" transform="translate(486.6842041015625, 255)"><g id="cp_2_Frame_6_1d1qtvm1ng083n-stroke" fill="none" stroke-linecap="round" stroke-linejoin="round" stroke-miterlimit="4" stroke="#4f91fc" stroke-width="2" stroke-opacity="1"><g><path d="M 69.6667 39.5C 69.6667 55.7924 56.3098 69 39.8333 69C 23.3568 69 10 55.7924 10 39.5C 10 23.2076 23.3568 10 39.8333 10C 56.3098 10 69.6667 23.2076 69.6667 39.5ZM 69.1491 45C 69.5404 43.0937 69.6667 41.5205 69.6667 39.5C 69.6667 37.4795 69.3314 34.9063 68.9401 33"></path></g></g></g><g id="g-root-cp_1_g-1_1463tmq1ng08wc-stroke" data-item-order="-445627" transform="translate(318.6842041015625, 339)"><g id="cp_1_g-1_1463tmq1ng08wc-stroke" fill="none" stroke-linecap="round" stroke-linejoin="round" stroke-miterlimit="4" stroke="#fb6762" stroke-width="2" stroke-opacity="1"><g><path d="M 69.6667 39.5C 69.6667 55.7924 56.3098 69 39.8333 69C 23.3568 69 10 55.7924 10 39.5C 10 23.2076 23.3568 10 39.8333 10C 56.3098 10 69.6667 23.2076 69.6667 39.5ZM 177 69C 177 55.9661 166.1812 45 153 45L 69.1491 45C 69.5404 43.0937 69.6667 41.5205 69.6667 39.5C 69.6667 37.4795 69.3314 34.9063 68.9401 33L 153 33C 172.7718 33 189 49.4491 189 69"></path></g></g></g><g id="g-root-cp_1_line_1463tmq1ng08wd-stroke" data-item-order="-445615" transform="translate(485.6842041015625, 398)"><g id="cp_1_line_1463tmq1ng08wd-stroke" fill="none" stroke-linecap="round" stroke-linejoin="round" stroke-miterlimit="4" stroke="#fb6762" stroke-width="2" stroke-opacity="1"><g><path d="M 10 10L 10 68.000004C 14.6863 68.000004 17.3137 68.000004 22 68.000004L 22 10"></path></g></g></g><g id="g-root-cp_3_g-3_zqabia1ng09om-stroke" data-item-order="-445605" transform="translate(535.6842041015625, 338)"><g id="cp_3_g-3_zqabia1ng09om-stroke" fill="none" stroke-linecap="round" stroke-linejoin="round" stroke-miterlimit="4" stroke="#43dd93" stroke-width="2" stroke-opacity="1"><g><path d="M 129.3333 39.5C 129.3333 55.7924 142.6902 69 159.1667 69C 175.6432 69 189 55.7924 189 39.5C 189 23.2076 175.6432 10 159.1667 10C 142.6902 10 129.3333 23.2076 129.3333 39.5ZM 10 70L 10 69C 10 49.4491 26.2282 33 46 33L 130.0599 33C 129.6686 34.9063 129.3333 37.4795 129.3333 39.5C 129.3333 41.5205 129.4596 43.0937 129.8509 45L 46 45C 32.8188 45 22 55.9661 22 69L 22 70"></path></g></g></g><g id="g-root-cp_3_line_3_qv9sci1ng07bj-stroke" data-item-order="-445583" transform="translate(535.6842041015625, 398)"><g id="cp_3_line_3_qv9sci1ng07bj-stroke" fill="none" stroke-linecap="round" stroke-linejoin="round" stroke-miterlimit="4" stroke="#43dd93" stroke-width="2" stroke-opacity="1"><g><path d="M 10 10L 10 68.000004L 22 68.000004L 22 10"></path></g></g></g><g id="g-root-sy_2_line-2_vb3agy1ng07b4-stroke" data-item-order="-445575" transform="translate(510.6842041015625, 314)"><g id="sy_2_line-2_vb3agy1ng07b4-stroke" fill="none" stroke-linecap="round" stroke-linejoin="round" stroke-miterlimit="4" stroke="#4f91fc" stroke-width="2" stroke-opacity="1"><g><path d="M 10 10L 22 10L 22 152L 10 152Z"></path></g></g></g><g id="g-root-tx_2ndmovem_4osqte1ng07b6-stroke" data-item-order="0" transform="translate(420.6842041015625, 142)"></g><g id="g-root-tx_selectda_1uu9sjm1ng07wr-stroke" data-item-order="0" transform="translate(408.6842041015625, 178)"></g><g id="g-root-ic_1_1hita6a1ng09ho-stroke" data-item-order="0" transform="translate(498.6842041015625, 267)"><g id="ic_1_1hita6a1ng09ho-stroke" fill="none" stroke-linecap="round" stroke-linejoin="round" stroke-miterlimit="4" stroke="#4f91fc" stroke-width="2" stroke-opacity="1"><g><path d="M 14.396867 38.502377C 14.396867 42.23061 17.419197 45.252937 21.14743 45.252937C 24.875662 45.252937 27.897991 42.23061 27.897991 38.502377C 27.897991 34.774143 24.875662 31.751814 21.14743 31.751814C 17.419197 31.751814 14.396867 34.774143 14.396867 38.502377M 27.897991 38.400368L 27.897991 12.319193C 27.897991 11.808633 28.147099 11.330185 28.565365 11.037398C 28.983633 10.744611 29.518446 10.674315 29.998167 10.849071C 35.433506 12.558228 39.737827 16.74124 41.601631 22.125509"></path></g></g></g><g id="g-root-tx_1stmovem_1ums6o21nfks20-stroke" data-item-order="0" transform="translate(101.6842041015625, 338)"></g><g id="g-root-ic_1_1hbboaq1nfktmy-stroke" data-item-order="0" transform="translate(329.6842041015625, 350)"><g id="ic_1_1hbboaq1nfktmy-stroke" fill="none" stroke-linecap="round" stroke-linejoin="round" stroke-miterlimit="4" stroke="#fb6762" stroke-width="2" stroke-opacity="1"><g><path d="M 10.75 21.25L 28.75 21.25M 10.75 15.25L 28.75 15.25M 10.75 39.25L 21.25 39.25M 10.75 27.25L 28.75 27.25M 10.75 33.25L 28.75 33.25M 28.75 40.75C 28.75 43.235283 30.764719 45.25 33.25 45.25C 35.735283 45.25 37.75 43.235283 37.75 40.75C 37.75 38.264721 35.735283 36.25 33.25 36.25C 30.764719 36.25 28.75 38.264721 28.75 40.75ZM 42.25 24.2155C 44.832092 22.284355 45.885498 18.915539 44.863514 15.857426C 43.84153 12.799312 40.97435 10.740706 37.75 10.75L 37.75 40.75"></path></g></g></g><g id="g-root-ic_shee_90vhky1ng083n-stroke" data-item-order="0" transform="translate(667.6842041015625, 350)"><g id="ic_shee_90vhky1ng083n-stroke" fill="none" stroke-linecap="round" stroke-linejoin="round" stroke-miterlimit="4" stroke="#43dd93" stroke-width="2" stroke-opacity="1"><g><path d="M 19.75 40.75L 19.75 42.25C 19.75 43.906857 21.093145 45.25 22.75 45.25C 24.406855 45.25 25.75 43.906857 25.75 42.25L 25.75 13.75C 25.75 12.093145 27.093145 10.75 28.75 10.75C 30.406855 10.75 31.75 12.093145 31.75 13.75C 31.769266 15.196033 31.135548 16.573681 30.025002 17.5L 20.5 25.405001C 19.087883 26.563057 18.263481 28.288805 18.25 30.115C 18.25 33.25 20.5 36.25 25 36.25C 27.899494 36.25 30.250002 33.899498 30.250002 31.000002C 30.25 28.928932 28.571068 27.25 26.5 27.25C 24.428932 27.25 22.75 28.928932 22.75 31M 19.75 40.75C 19.75 41.578426 20.421574 42.25 21.25 42.25C 22.078428 42.25 22.75 41.578426 22.75 40.75C 22.75 39.921574 22.078428 39.25 21.25 39.25C 20.421574 39.25 19.75 39.921574 19.75 40.75M 10.75 16.75L 22.75 16.75M 34.75 16.75L 45.25 16.75M 10.75 24.25L 16 24.25M 33.25 24.25L 45.25 24.25M 10.75 31.75L 14.5 31.75M 33.25 31.75L 45.25 31.75M 10.75 39.25L 16.75 39.25M 30.25 39.25L 45.25 39.25"></path></g></g></g><g id="g-root-tx_3rdmovem_1cwr7ia1nfm77o-stroke" data-item-order="0" transform="translate(739.6842041015625, 338)"></g><g id="g-root-tx_choosebe_1q6yojm1nfksu9-stroke" data-item-order="0" transform="translate(53.6842041015625, 374)"></g><g id="g-root-tx_decidebe_qqa5z61nfm6fh-stroke" data-item-order="0" transform="translate(739.6842041015625, 374)"></g><g id="g-root-tx_v7denj1p3ml1c-stroke" data-item-order="0" transform="translate(387.0000305175781, 494.74853515625)"></g></g></g><path id="w1ums0b31mvofm5" d="M65.283 12.757a.35.35 0 0 0 .584.157l5.203-5.141-6.183 3.523.396 1.461zm-2.216-11.7a.35.35 0 0 0-.522.305v3.111l3.276-1.868-2.754-1.548zm3.728 2.105l-4.25 2.421v2.445l6.391-3.644-2.141-1.222zm4.708 3.303a.35.35 0 0 0 0-.609l-1.592-.9-7.365 4.199v1.782a.35.35 0 0 0 .523.305l8.435-4.777z M44.542 2.513c0-.433.355-.783.792-.783s.792.35.792.783-.355.783-.792.783-.792-.35-.792-.783zm59.171 0c0-.433.355-.783.792-.783s.792.35.792.783-.355.783-.792.783-.792-.35-.792-.783zm-85.951 7.636h-1.27v-.487c-.276.201-.864.609-1.881.609-1.202 0-2.274-.794-2.137-2.078.118-1.106 1.153-1.584 1.848-1.727l2.17-.345c0-.539-.29-.956-1.064-1.006s-1.21.305-1.571 1.017l-1.124-.605c1.218-2.631 5.029-1.764 5.029.414v4.207zm-1.27-2.86c.006.396-.062 1.112-.819 1.59-.587.37-1.841.299-1.903-.395-.049-.555.461-.791.906-.898l1.816-.297zm72.662 2.86h-1.27v-.487c-.276.201-.864.609-1.881.609-1.202 0-2.274-.794-2.137-2.078.118-1.106 1.153-1.584 1.848-1.727l2.17-.345c0-.539-.29-.956-1.064-1.006s-1.21.305-1.571 1.017l-1.124-.605c1.218-2.631 5.029-1.764 5.029.414v4.207zm-1.27-2.86c.006.396-.062 1.112-.82 1.59-.587.37-1.841.299-1.903-.395-.049-.555.461-.791.906-.898l1.816-.297zM99.096 10.149H97.85v-8.45h1.246v4.895l2.68-2.559h1.738l-2.633 2.535 2.715 3.578h-1.556l-2.077-2.707-.867.844v1.863zm6.053-6.114h-1.255v6.113h1.255V4.035zm-59.2 0h-1.255v6.113h1.255V4.035zm5.584 6.113V1.697h1.255v2.695c.361-.346 1-.485 1.47-.485 1.452 0 2.477 1.082 2.457 2.448v3.792h-1.27v-3.68c0-.408-.214-1.339-1.315-1.339-.968 0-1.342.756-1.342 1.339v3.681h-1.255zm-4.76-4.894V4.039h.621a.45.45 0 0 0 .45-.45v-.855h1.251v1.305h1.309v1.215h-1.309v3.109c0 .293.105.664.648.664.365 0 .531-.035.736-.07v1.137s-.361.113-.857.113c-1.398 0-1.777-1.051-1.777-1.788V5.254h-1.071zM36.528 4.039h-1.394l2.191 6.106h1.125l1.234-3.918 1.238 3.918h1.129l2.188-6.106h-1.383l-1.359 3.93-1.256-3.93h-1.124l-1.242 3.957-1.348-3.957zM26.212 7.141c-.02 1.566 1.187 3.129 3.223 3.129 1.566 0 2.383-.918 2.734-1.719L31.172 8c-.315.399-.801 1.094-1.738 1.094-1.145 0-1.825-.781-1.891-1.52h4.625c.074-.284.148-.995-.03-1.559-.336-1.064-1.221-2.102-2.839-2.102s-3.088 1.152-3.088 3.227zm1.363-.75h3.348c-.055-.43-.566-1.301-1.623-1.301a1.79 1.79 0 0 0-1.725 1.301zm-8.758.75c.038 1.758 1.277 3.133 3.145 3.133 1.074 0 1.723-.477 1.961-.672v.547h1.242V1.703h-1.258v2.888c-.414-.36-1.062-.68-1.93-.68-1.91 0-3.198 1.473-3.16 3.23zm1.309-.08c0 1.119.723 1.978 1.836 1.978a1.88 1.88 0 0 0 1.94-1.904c0-1.371-1.011-1.99-1.972-1.99s-1.805.798-1.805 1.916zm76.683-.028C96.771 5.275 95.532 3.9 93.664 3.9c-1.074 0-1.723.477-1.961.672v-.547h-1.242v8.22h1.258V9.583c.414.36 1.063.68 1.93.68 1.91 0 3.198-1.473 3.16-3.23zm-1.309.08c0-1.119-.723-1.978-1.836-1.978a1.88 1.88 0 0 0-1.94 1.904c0 1.371 1.011 1.99 1.972 1.99S95.5 8.231 95.5 7.113zM106.441 10.173V4.036h1.254v.382c.361-.346 1-.485 1.47-.485 1.452 0 2.477 1.082 2.457 2.448v3.792h-1.27V6.492c0-.408-.214-1.339-1.315-1.339-.969 0-1.342.756-1.342 1.339v3.681h-1.254zm-30.383-.021V1.824h1.084l4.215 5.777V1.824h1.32v8.328h-1.094l-4.207-5.796v5.796h-1.319zM5.24 10.149H4V2.377h1.014l2.664 3.597 2.654-3.592h1.03v7.766h-1.256V4.762L7.678 8.068 5.24 4.742v5.407z" transform="translate(907.6842041015625, 590.74853515625)" fill="#ababab88" stroke="none"></path></svg>