<svg xmlns="http://www.w3.org/2000/svg" width="900" height="500" viewBox="0 0 900 500">
  <!-- Background -->
  <rect width="900" height="500" fill="#ffffff" stroke="none"/>
  
  <!-- Title -->
  <text x="450" y="25" text-anchor="middle" font-family="serif" font-size="16" font-weight="bold" fill="#000">
    Haydn String Quartet Op. 76 No. 3 "Emperor" - Complete Theme
  </text>
  
  <!-- First system - measures 1-5 -->
  <g id="system1">
    <!-- Staff lines -->
    <line x1="40" y1="70" x2="860" y2="70" stroke="#000" stroke-width="1"/>
    <line x1="40" y1="80" x2="860" y2="80" stroke="#000" stroke-width="1"/>
    <line x1="40" y1="90" x2="860" y2="90" stroke="#000" stroke-width="1"/>
    <line x1="40" y1="100" x2="860" y2="100" stroke="#000" stroke-width="1"/>
    <line x1="40" y1="110" x2="860" y2="110" stroke="#000" stroke-width="1"/>
    
    <!-- Treble clef -->
    <text x="50" y="105" font-family="serif" font-size="35" fill="#000">𝄞</text>
    
    <!-- Key signature (G major - F#) -->
    <text x="75" y="85" font-family="serif" font-size="14" fill="#000">♯</text>
    
    <!-- Time signature 4/4 -->
    <text x="95" y="90" font-family="serif" font-size="16" fill="#000">4</text>
    <text x="95" y="105" font-family="serif" font-size="16" fill="#000">4</text>
    
    <!-- Measure 1: G-G-A-B with slur -->
    <path d="M 120 115 Q 180 105 240 95" stroke="#000" stroke-width="1.5" fill="none"/>
    <circle cx="130" cy="115" r="3" fill="#000"/>
    <line x1="133" y1="115" x2="133" y2="90" stroke="#000" stroke-width="1.5"/>
    <circle cx="160" cy="115" r="3" fill="#000"/>
    <line x1="163" y1="115" x2="163" y2="90" stroke="#000" stroke-width="1.5"/>
    <circle cx="190" cy="110" r="3" fill="#000"/>
    <line x1="193" y1="110" x2="193" y2="85" stroke="#000" stroke-width="1.5"/>
    <circle cx="220" cy="105" r="3" fill="#000"/>
    <line x1="223" y1="105" x2="223" y2="80" stroke="#000" stroke-width="1.5"/>
    
    <!-- Bar line -->
    <line x1="250" y1="70" x2="250" y2="110" stroke="#000" stroke-width="1.5"/>
    
    <!-- Measure 2: C half note, D-D -->
    <circle cx="270" cy="100" r="3" fill="none" stroke="#000" stroke-width="1.5"/>
    <line x1="273" y1="100" x2="273" y2="75" stroke="#000" stroke-width="1.5"/>
    <circle cx="320" cy="95" r="3" fill="#000"/>
    <line x1="323" y1="95" x2="323" y2="70" stroke="#000" stroke-width="1.5"/>
    <circle cx="350" cy="95" r="3" fill="#000"/>
    <line x1="353" y1="95" x2="353" y2="70" stroke="#000" stroke-width="1.5"/>
    
    <!-- Bar line -->
    <line x1="380" y1="70" x2="380" y2="110" stroke="#000" stroke-width="1.5"/>
    
    <!-- Measure 3: E-E-F#-G with slur -->
    <path d="M 400 90 Q 460 85 520 80" stroke="#000" stroke-width="1.5" fill="none"/>
    <circle cx="410" cy="90" r="3" fill="#000"/>
    <line x1="413" y1="90" x2="413" y2="65" stroke="#000" stroke-width="1.5"/>
    <circle cx="440" cy="90" r="3" fill="#000"/>
    <line x1="443" y1="90" x2="443" y2="65" stroke="#000" stroke-width="1.5"/>
    <circle cx="470" cy="85" r="3" fill="#000"/>
    <line x1="473" y1="85" x2="473" y2="60" stroke="#000" stroke-width="1.5"/>
    <circle cx="500" cy="80" r="3" fill="#000"/>
    <line x1="503" y1="80" x2="503" y2="55" stroke="#000" stroke-width="1.5"/>
    
    <!-- Bar line -->
    <line x1="530" y1="70" x2="530" y2="110" stroke="#000" stroke-width="1.5"/>
    
    <!-- Measure 4: G half note, dotted quarter rest, eighth note G -->
    <circle cx="560" cy="80" r="3" fill="none" stroke="#000" stroke-width="1.5"/>
    <text x="600" y="95" font-family="serif" font-size="12" fill="#000">𝄽</text>
    <text x="620" y="95" font-family="serif" font-size="8" fill="#000">•</text>
    <circle cx="650" cy="80" r="3" fill="#000"/>
    <line x1="653" y1="80" x2="653" y2="55" stroke="#000" stroke-width="1.5"/>
    <path d="M 653 55 Q 658 50 663 55" stroke="#000" stroke-width="1" fill="none"/>
    
    <!-- Bar line -->
    <line x1="680" y1="70" x2="680" y2="110" stroke="#000" stroke-width="1.5"/>
    
    <!-- Measure 5: G-G-A-B with slur -->
    <path d="M 700 115 Q 760 105 820 95" stroke="#000" stroke-width="1.5" fill="none"/>
    <circle cx="710" cy="115" r="3" fill="#000"/>
    <line x1="713" y1="115" x2="713" y2="90" stroke="#000" stroke-width="1.5"/>
    <circle cx="740" cy="115" r="3" fill="#000"/>
    <line x1="743" y1="115" x2="743" y2="90" stroke="#000" stroke-width="1.5"/>
    <circle cx="770" cy="110" r="3" fill="#000"/>
    <line x1="773" y1="110" x2="773" y2="85" stroke="#000" stroke-width="1.5"/>
    <circle cx="800" cy="105" r="3" fill="#000"/>
    <line x1="803" y1="105" x2="803" y2="80" stroke="#000" stroke-width="1.5"/>
    
    <!-- Bar line -->
    <line x1="830" y1="70" x2="830" y2="110" stroke="#000" stroke-width="1.5"/>
  </g>
  
  <!-- Second system - measures 6-10 -->
  <g id="system2">
    <!-- Staff lines -->
    <line x1="40" y1="170" x2="860" y2="170" stroke="#000" stroke-width="1"/>
    <line x1="40" y1="180" x2="860" y2="180" stroke="#000" stroke-width="1"/>
    <line x1="40" y1="190" x2="860" y2="190" stroke="#000" stroke-width="1"/>
    <line x1="40" y1="200" x2="860" y2="200" stroke="#000" stroke-width="1"/>
    <line x1="40" y1="210" x2="860" y2="210" stroke="#000" stroke-width="1"/>
    
    <!-- Measure 6: C half note, five eighth notes -->
    <circle cx="70" cy="200" r="3" fill="none" stroke="#000" stroke-width="1.5"/>
    <line x1="73" y1="200" x2="73" y2="175" stroke="#000" stroke-width="1.5"/>
    
    <!-- Five eighth notes beamed together -->
    <circle cx="130" cy="195" r="3" fill="#000"/>
    <line x1="133" y1="195" x2="133" y2="170" stroke="#000" stroke-width="1.5"/>
    <circle cx="150" cy="195" r="3" fill="#000"/>
    <line x1="153" y1="195" x2="153" y2="170" stroke="#000" stroke-width="1.5"/>
    <circle cx="170" cy="195" r="3" fill="#000"/>
    <line x1="173" y1="195" x2="173" y2="170" stroke="#000" stroke-width="1.5"/>
    <circle cx="190" cy="195" r="3" fill="#000"/>
    <line x1="193" y1="195" x2="193" y2="170" stroke="#000" stroke-width="1.5"/>
    <circle cx="210" cy="195" r="3" fill="#000"/>
    <line x1="213" y1="195" x2="213" y2="170" stroke="#000" stroke-width="1.5"/>
    
    <!-- Beam connecting the five eighth notes -->
    <rect x="133" y="170" width="80" height="3" fill="#000"/>
    
    <!-- Bar line -->
    <line x1="240" y1="170" x2="240" y2="210" stroke="#000" stroke-width="1.5"/>
    
    <!-- Measure 7: Slurred passage -->
    <path d="M 260 190 Q 320 185 380 180" stroke="#000" stroke-width="1.5" fill="none"/>
    <circle cx="270" cy="190" r="3" fill="#000"/>
    <line x1="273" y1="190" x2="273" y2="165" stroke="#000" stroke-width="1.5"/>
    <circle cx="300" cy="185" r="3" fill="#000"/>
    <line x1="303" y1="185" x2="303" y2="160" stroke="#000" stroke-width="1.5"/>
    <circle cx="330" cy="185" r="3" fill="#000"/>
    <line x1="333" y1="185" x2="333" y2="160" stroke="#000" stroke-width="1.5"/>
    <circle cx="360" cy="180" r="3" fill="#000"/>
    <line x1="363" y1="180" x2="363" y2="155" stroke="#000" stroke-width="1.5"/>
    
    <!-- Bar line -->
    <line x1="390" y1="170" x2="390" y2="210" stroke="#000" stroke-width="1.5"/>
    
    <!-- Measure 8: More complex rhythm with dotted notes -->
    <circle cx="420" cy="185" r="3" fill="#000"/>
    <line x1="423" y1="185" x2="423" y2="160" stroke="#000" stroke-width="1.5"/>
    <text x="430" y="175" font-family="serif" font-size="6" fill="#000">•</text>
    <circle cx="470" cy="180" r="3" fill="#000"/>
    <line x1="473" y1="180" x2="473" y2="155" stroke="#000" stroke-width="1.5"/>
    <path d="M 473 155 Q 478 150 483 155" stroke="#000" stroke-width="1" fill="none"/>
    <circle cx="510" cy="185" r="3" fill="#000"/>
    <line x1="513" y1="185" x2="513" y2="160" stroke="#000" stroke-width="1.5"/>
    
    <!-- Bar line -->
    <line x1="540" y1="170" x2="540" y2="210" stroke="#000" stroke-width="1.5"/>
    
    <!-- Measure 9: Half note -->
    <circle cx="570" cy="180" r="3" fill="none" stroke="#000" stroke-width="1.5"/>
    <line x1="573" y1="180" x2="573" y2="155" stroke="#000" stroke-width="1.5"/>
    
    <!-- Bar line -->
    <line x1="600" y1="170" x2="600" y2="210" stroke="#000" stroke-width="1.5"/>
  </g>
  
  <!-- Third system - measures 12-16 -->
  <g id="system3">
    <!-- Staff lines -->
    <line x1="40" y1="270" x2="860" y2="270" stroke="#000" stroke-width="1"/>
    <line x1="40" y1="280" x2="860" y2="280" stroke="#000" stroke-width="1"/>
    <line x1="40" y1="290" x2="860" y2="290" stroke="#000" stroke-width="1"/>
    <line x1="40" y1="300" x2="860" y2="300" stroke="#000" stroke-width="1"/>
    <line x1="40" y1="310" x2="860" y2="310" stroke="#000" stroke-width="1"/>
    
    <!-- Measure 12 number -->
    <text x="40" y="260" font-family="sans-serif" font-size="10" fill="#666">12</text>
    
    <!-- Fermata and whole note -->
    <text x="70" y="265" font-family="serif" font-size="16" fill="#000">𝄐</text>
    <circle cx="80" cy="270" r="4" fill="none" stroke="#000" stroke-width="2"/>
    
    <!-- "Melodic Device" text box -->
    <rect x="150" y="250" width="120" height="20" fill="none" stroke="#000" stroke-width="1"/>
    <text x="210" y="263" text-anchor="middle" font-family="serif" font-size="11" fill="#000">Melodic Device</text>
    
    <!-- Bar line -->
    <line x1="300" y1="270" x2="300" y2="310" stroke="#000" stroke-width="1.5"/>
    
    <!-- Measure 13-14: Sequence pattern -->
    <circle cx="330" cy="285" r="3" fill="#000"/>
    <line x1="333" y1="285" x2="333" y2="260" stroke="#000" stroke-width="1.5"/>
    <text x="340" y="275" font-family="serif" font-size="6" fill="#000">•</text>
    
    <circle cx="370" cy="290" r="3" fill="#000"/>
    <line x1="367" y1="290" x2="367" y2="315" stroke="#000" stroke-width="1.5"/>
    <circle cx="390" cy="285" r="3" fill="#000"/>
    <line x1="393" y1="285" x2="393" y2="260" stroke="#000" stroke-width="1.5"/>
    
    <!-- Slur over sequence -->
    <path d="M 370 275 Q 420 270 470 275" stroke="#000" stroke-width="1.5" fill="none"/>
    
    <circle cx="420" cy="285" r="3" fill="#000"/>
    <line x1="423" y1="285" x2="423" y2="260" stroke="#000" stroke-width="1.5"/>
    <circle cx="440" cy="290" r="3" fill="#000"/>
    <line x1="437" y1="290" x2="437" y2="315" stroke="#000" stroke-width="1.5"/>
    <circle cx="460" cy="285" r="3" fill="#000"/>
    <line x1="463" y1="285" x2="463" y2="260" stroke="#000" stroke-width="1.5"/>
    <circle cx="480" cy="290" r="3" fill="#000"/>
    <line x1="477" y1="290" x2="477" y2="315" stroke="#000" stroke-width="1.5"/>
    <circle cx="500" cy="285" r="3" fill="#000"/>
    <line x1="503" y1="285" x2="503" y2="260" stroke="#000" stroke-width="1.5"/>
    
    <!-- Dynamic marking p -->
    <text x="330" y="330" font-family="serif" font-size="14" font-style="italic" fill="#000">p</text>
    
    <!-- Bar line -->
    <line x1="530" y1="270" x2="530" y2="310" stroke="#000" stroke-width="1.5"/>
    
    <!-- Measure 15-16: Continuation with sfz marking -->
    <circle cx="560" cy="280" r="3" fill="#000"/>
    <line x1="563" y1="280" x2="563" y2="255" stroke="#000" stroke-width="1.5"/>
    <text x="570" y="270" font-family="serif" font-size="6" fill="#000">•</text>
    
    <circle cx="600" cy="285" r="3" fill="#000"/>
    <line x1="597" y1="285" x2="597" y2="310" stroke="#000" stroke-width="1.5"/>
    
    <!-- sfz marking -->
    <text x="620" y="330" font-family="serif" font-size="12" font-style="italic" fill="#000">sfz</text>
    
    <!-- Bar line -->
    <line x1="650" y1="270" x2="650" y2="310" stroke="#000" stroke-width="1.5"/>
  </g>
  
  <!-- Fourth system - measures 17-20 -->
  <g id="system4">
    <!-- Staff lines -->
    <line x1="40" y1="370" x2="860" y2="370" stroke="#000" stroke-width="1"/>
    <line x1="40" y1="380" x2="860" y2="380" stroke="#000" stroke-width="1"/>
    <line x1="40" y1="390" x2="860" y2="390" stroke="#000" stroke-width="1"/>
    <line x1="40" y1="400" x2="860" y2="400" stroke="#000" stroke-width="1"/>
    <line x1="40" y1="410" x2="860" y2="410" stroke="#000" stroke-width="1"/>
    
    <!-- Measure 17 number -->
    <text x="40" y="360" font-family="sans-serif" font-size="10" fill="#666">17</text>
    
    <!-- Measure 17: Slurred passage -->
    <path d="M 70 385 Q 130 380 190 385" stroke="#000" stroke-width="1.5" fill="none"/>
    <circle cx="80" cy="385" r="3" fill="#000"/>
    <line x1="83" y1="385" x2="83" y2="360" stroke="#000" stroke-width="1.5"/>
    <circle cx="100" cy="385" r="3" fill="#000"/>
    <line x1="103" y1="385" x2="103" y2="360" stroke="#000" stroke-width="1.5"/>
    <circle cx="120" cy="380" r="3" fill="#000"/>
    <line x1="123" y1="380" x2="123" y2="355" stroke="#000" stroke-width="1.5"/>
    <text x="130" y="370" font-family="serif" font-size="6" fill="#000">•</text>
    
    <circle cx="160" cy="385" r="3" fill="#000"/>
    <line x1="157" y1="385" x2="157" y2="410" stroke="#000" stroke-width="1.5"/>
    
    <!-- sfz marking -->
    <text x="80" y="430" font-family="serif" font-size="12" font-style="italic" fill="#000">sfz</text>
    
    <!-- Bar line -->
    <line x1="200" y1="370" x2="200" y2="410" stroke="#000" stroke-width="1.5"/>
    
    <!-- Measure 18: Similar pattern -->
    <path d="M 220 385 Q 280 380 340 385" stroke="#000" stroke-width="1.5" fill="none"/>
    <circle cx="230" cy="385" r="3" fill="#000"/>
    <line x1="233" y1="385" x2="233" y2="360" stroke="#000" stroke-width="1.5"/>
    <circle cx="250" cy="385" r="3" fill="#000"/>
    <line x1="253" y1="385" x2="253" y2="360" stroke="#000" stroke-width="1.5"/>
    <circle cx="270" cy="380" r="3" fill="#000"/>
    <line x1="273" y1="380" x2="273" y2="355" stroke="#000" stroke-width="1.5"/>
    <text x="280" y="370" font-family="serif" font-size="6" fill="#000">•</text>
    
    <circle cx="310" cy="385" r="3" fill="#000"/>
    <line x1="307" y1="385" x2="307" y2="410" stroke="#000" stroke-width="1.5"/>
    <circle cx="330" cy="385" r="3" fill="#000"/>
    <line x1="333" y1="385" x2="333" y2="360" stroke="#000" stroke-width="1.5"/>
    <circle cx="350" cy="385" r="3" fill="#000"/>
    <line x1="353" y1="385" x2="353" y2="360" stroke="#000" stroke-width="1.5"/>
    
    <!-- p marking -->
    <text x="230" y="430" font-family="serif" font-size="14" font-style="italic" fill="#000">p</text>
    
    <!-- Bar line -->
    <line x1="380" y1="370" x2="380" y2="410" stroke="#000" stroke-width="1.5"/>
    
    <!-- Measure 19-20: Final measures with slur -->
    <path d="M 400 385 Q 460 380 520 385" stroke="#000" stroke-width="1.5" fill="none"/>
    <circle cx="410" cy="385" r="3" fill="#000"/>
    <line x1="413" y1="385" x2="413" y2="360" stroke="#000" stroke-width="1.5"/>
    <circle cx="430" cy="385" r="3" fill="#000"/>
    <line x1="433" y1="385" x2="433" y2="360" stroke="#000" stroke-width="1.5"/>
    <circle cx="450" cy="380" r="3" fill="#000"/>
    <line x1="453" y1="380" x2="453" y2="355" stroke="#000" stroke-width="1.5"/>
    <circle cx="470" cy="385" r="3" fill="#000"/>
    <line x1="467" y1="385" x2="467" y2="410" stroke="#000" stroke-width="1.5"/>
    <circle cx="490" cy="385" r="3" fill="#000"/>
    <line x1="493" y1="385" x2="493" y2="360" stroke="#000" stroke-width="1.5"/>
    <circle cx="510" cy="385" r="3" fill="#000"/>
    <line x1="513" y1="385" x2="513" y2="360" stroke="#000" stroke-width="1.5"/>
    
    <!-- Final half note -->
    <circle cx="550" cy="385" r="3" fill="none" stroke="#000" stroke-width="1.5"/>
    <line x1="553" y1="385" x2="553" y2="360" stroke="#000" stroke-width="1.5"/>
    
    <!-- Final double bar line -->
    <line x1="580" y1="370" x2="580" y2="410" stroke="#000" stroke-width="1.5"/>
    <line x1="585" y1="370" x2="585" y2="410" stroke="#000" stroke-width="3"/>
  </g>
  
  <!-- Performance instructions and analysis -->
  <text x="40" y="460" font-family="serif" font-size="12" fill="#666">
    Andante cantabile - This melody became the German national anthem "Deutschland über alles"
  </text>
  
  <text x="40" y="480" font-family="sans-serif" font-size="11" fill="#444">
    Key: G Major | Time: 4/4 | Notable features: Melodic sequences, dynamic contrasts, phrase structure
  </text>
</svg>