<svg width="800" height="200" viewBox="0 0 800 200" xmlns="http://www.w3.org/2000/svg">
  <!-- Staff lines -->
  <g stroke="#000" stroke-width="1" fill="none">
    <line x1="50" y1="40" x2="750" y2="40"/>
    <line x1="50" y1="50" x2="750" y2="50"/>
    <line x1="50" y1="60" x2="750" y2="60"/>
    <line x1="50" y1="70" x2="750" y2="70"/>
    <line x1="50" y1="80" x2="750" y2="80"/>
    
    <!-- Second staff -->
    <line x1="50" y1="130" x2="750" y2="130"/>
    <line x1="50" y1="140" x2="750" y2="140"/>
    <line x1="50" y1="150" x2="750" y2="150"/>
    <line x1="50" y1="160" x2="750" y2="160"/>
    <line x1="50" y1="170" x2="750" y2="170"/>
  </g>
  
  <!-- Treble clef -->
  <g fill="#000">
    <path d="M65 35 Q70 25 75 35 Q80 45 75 55 Q70 65 65 55 Q60 45 65 35 Z"/>
    <circle cx="67" cy="65" r="2"/>
  </g>
  
  <!-- Time signature 2/4 -->
  <text x="85" y="55" font-family="serif" font-size="16" fill="#000">2</text>
  <text x="85" y="75" font-family="serif" font-size="16" fill="#000">4</text>
  
  <!-- Bar 1 - Rests and notes -->
  <rect x="110" y="55" width="8" height="4" fill="#000"/>
  <rect x="130" y="55" width="8" height="4" fill="#000"/>
  <rect x="150" y="55" width="8" height="4" fill="#000"/>
  
  <!-- Fermata symbols -->
  <path d="M170 45 Q175 40 180 45" stroke="#000" stroke-width="1" fill="none"/>
  <circle cx="175" cy="47" r="1" fill="#000"/>
  <path d="M190 45 Q195 40 200 45" stroke="#000" stroke-width="1" fill="none"/>
  <circle cx="195" cy="47" r="1" fill="#000"/>
  
  <!-- Bar lines -->
  <line x1="220" y1="40" x2="220" y2="80" stroke="#000" stroke-width="1"/>
  <line x1="280" y1="40" x2="280" y2="80" stroke="#000" stroke-width="1"/>
  <line x1="340" y1="40" x2="340" y2="80" stroke="#000" stroke-width="1"/>
  
  <!-- Notes in later bars -->
  <g fill="#000">
    <ellipse cx="590" cy="65" rx="3" ry="2"/>
    <line x1="593" y1="65" x2="593" y2="45" stroke="#000" stroke-width="1"/>
    <ellipse cx="610" cy="60" rx="3" ry="2"/>
    <line x1="613" y1="60" x2="613" y2="40" stroke="#000" stroke-width="1"/>
    <ellipse cx="630" cy="65" rx="3" ry="2"/>
    <line x1="633" y1="65" x2="633" y2="45" stroke="#000" stroke-width="1"/>
    <ellipse cx="650" cy="60" rx="3" ry="2"/>
    <line x1="653" y1="60" x2="653" y2="40" stroke="#000" stroke-width="1"/>
  </g>
  
  <!-- Second staff treble clef -->
  <g fill="#000">
    <path d="M65 125 Q70 115 75 125 Q80 135 75 145 Q70 155 65 145 Q60 135 65 125 Z"/>
    <circle cx="67" cy="155" r="2"/>
  </g>
  
  <!-- Measure 9 -->
  <text x="85" y="120" font-family="serif" font-size="12" fill="#000">9</text>
  
  <!-- Notes in second staff -->
  <g fill="#000">
    <ellipse cx="110" cy="155" rx="3" ry="2"/>
    <line x1="113" y1="155" x2="113" y2="135" stroke="#000" stroke-width="1"/>
    <ellipse cx="130" cy="150" rx="3" ry="2"/>
    <line x1="133" y1="150" x2="133" y2="130" stroke="#000" stroke-width="1"/>
    <ellipse cx="150" cy="155" rx="3" ry="2"/>
    <line x1="153" y1="155" x2="153" y2="135" stroke="#000" stroke-width="1"/>
    <ellipse cx="170" cy="150" rx="3" ry="2"/>
    <line x1="173" y1="150" x2="173" y2="130" stroke="#000" stroke-width="1"/>
  </g>
  
  <!-- Beaming -->
  <path d="M113 135 L133 130 L153 135 L173 130" stroke="#000" stroke-width="2" fill="none"/>
  
  <!-- More notes continuing the pattern -->
  <g fill="#000">
    <ellipse cx="190" cy="155" rx="3" ry="2"/>
    <line x1="193" y1="155" x2="193" y2="135" stroke="#000" stroke-width="1"/>
    <ellipse cx="210" cy="150" rx="3" ry="2"/>
    <line x1="213" y1="150" x2="213" y2="130" stroke="#000" stroke-width="1"/>
    <ellipse cx="230" cy="155" rx="3" ry="2"/>
    <line x1="233" y1="155" x2="233" y2="135" stroke="#000" stroke-width="1"/>
    <ellipse cx="250" cy="150" rx="3" ry="2"/>
    <line x1="253" y1="150" x2="253" y2="130" stroke="#000" stroke-width="1"/>
  </g>
  
  <!-- More beaming -->
  <path d="M193 135 L213 130 L233 135 L253 130" stroke="#000" stroke-width="2" fill="none"/>
  
  <!-- Measure 12 -->
  <text x="500" y="120" font-family="serif" font-size="12" fill="#000">12</text>
  
  <!-- Scale passage in measure 12 -->
  <g fill="#000">
    <ellipse cx="520" cy="155" rx="3" ry="2"/>
    <line x1="523" y1="155" x2="523" y2="135" stroke="#000" stroke-width="1"/>
    <ellipse cx="535" cy="150" rx="3" ry="2"/>
    <line x1="538" y1="150" x2="538" y2="130" stroke="#000" stroke-width="1"/>
    <ellipse cx="550" cy="145" rx="3" ry="2"/>
    <line x1="553" y1="145" x2="553" y2="125" stroke="#000" stroke-width="1"/>
    <ellipse cx="565" cy="140" rx="3" ry="2"/>
    <line x1="568" y1="140" x2="568" y2="120" stroke="#000" stroke-width="1"/>
    <ellipse cx="580" cy="135" rx="3" ry="2"/>
    <line x1="583" y1="135" x2="583" y2="115" stroke="#000" stroke-width="1"/>
  </g>
  
  <!-- Beaming for scale passage -->
  <path d="M523 135 L538 130 L553 125 L568 120 L583 115" stroke="#000" stroke-width="2" fill="none"/>
  
  <!-- Text labels -->
  <text x="110" y="25" font-family="Arial" font-size="10" fill="#000">Shape of melody</text>
  <text x="240" y="25" font-family="Arial" font-size="10" fill="#000">Melodic device</text>
  <text x="360" y="25" font-family="Arial" font-size="10" fill="#000">4</text>
  <text x="460" y="25" font-family="Arial" font-size="10" fill="#000">Melodic device</text>
  
  <!-- Arrows and labels -->
  <path d="M175 30 L175 35" stroke="#000" stroke-width="1" marker-end="url(#arrowhead)"/>
  <text x="160" y="100" font-family="Arial" font-size="10" fill="#000">Shape of melody</text>
  <text x="170" y="115" font-family="Arial" font-size="10" fill="#000">Interval?</text>
  
  <text x="650" y="120" font-family="Arial" font-size="10" fill="#000">Musical device</text>
  
  <!-- Arrow marker definition -->
  <defs>
    <marker id="arrowhead" markerWidth="10" markerHeight="7" refX="9" refY="3.5" orient="auto">
      <polygon points="0 0, 10 3.5, 0 7" fill="#000"/>
    </marker>
  </defs>
</svg>