<?xml version="1.0" encoding="UTF-8"?>
<svg xmlns="http://www.w3.org/2000/svg" viewBox="0 0 800 600" width="800" height="600">
  <!-- Background -->
  <rect width="800" height="600" fill="#ffffff"/>
  
  <!-- Staff Lines -->
  <!-- First System -->
  <g stroke="#000000" stroke-width="1" fill="none">
    <!-- Staff 1 -->
    <line x1="50" y1="80" x2="750" y2="80"/>
    <line x1="50" y1="90" x2="750" y2="90"/>
    <line x1="50" y1="100" x2="750" y2="100"/>
    <line x1="50" y1="110" x2="750" y2="110"/>
    <line x1="50" y1="120" x2="750" y2="120"/>
    
    <!-- Staff 2 -->
    <line x1="50" y1="180" x2="750" y2="180"/>
    <line x1="50" y1="190" x2="750" y2="190"/>
    <line x1="50" y1="200" x2="750" y2="200"/>
    <line x1="50" y1="210" x2="750" y2="210"/>
    <line x1="50" y1="220" x2="750" y2="220"/>
    
    <!-- Staff 3 -->
    <line x1="50" y1="280" x2="750" y2="280"/>
    <line x1="50" y1="290" x2="750" y2="290"/>
    <line x1="50" y1="300" x2="750" y2="300"/>
    <line x1="50" y1="310" x2="750" y2="310"/>
    <line x1="50" y1="320" x2="750" y2="320"/>
    
    <!-- Staff 4 -->
    <line x1="50" y1="380" x2="750" y2="380"/>
    <line x1="50" y1="390" x2="750" y2="390"/>
    <line x1="50" y1="400" x2="750" y2="400"/>
    <line x1="50" y1="410" x2="750" y2="410"/>
    <line x1="50" y1="420" x2="750" y2="420"/>
  </g>
  
  <!-- Clefs -->
  <g fill="#000000">
    <!-- Treble Clef -->
    <text x="60" y="105" font-family="serif" font-size="40" text-anchor="middle">𝄞</text>
    <text x="60" y="205" font-family="serif" font-size="40" text-anchor="middle">𝄞</text>
    <text x="60" y="305" font-family="serif" font-size="40" text-anchor="middle">𝄞</text>
    <text x="60" y="405" font-family="serif" font-size="40" text-anchor="middle">𝄞</text>
  </g>
  
  <!-- Key Signature (G Major - 1 sharp) -->
  <g fill="#000000">
    <text x="90" y="95" font-family="serif" font-size="20">♯</text>
    <text x="90" y="195" font-family="serif" font-size="20">♯</text>
    <text x="90" y="295" font-family="serif" font-size="20">♯</text>
    <text x="90" y="395" font-family="serif" font-size="20">♯</text>
  </g>
  
  <!-- Time Signature -->
  <g fill="#000000" font-family="serif" font-size="24" text-anchor="middle">
    <text x="120" y="95">4</text>
    <text x="120" y="115">4</text>
    <text x="120" y="195">4</text>
    <text x="120" y="215">4</text>
    <text x="120" y="295">4</text>
    <text x="120" y="315">4</text>
    <text x="120" y="395">4</text>
    <text x="120" y="415">4</text>
  </g>
  
  <!-- Notes - First Measure -->
  <g fill="#000000">
    <!-- Anacrusis (upbeat) -->
    <ellipse cx="140" cy="100" rx="4" ry="3"/>
    <line x1="144" y1="100" x2="144" y2="80" stroke="#000000" stroke-width="1"/>
    
    <!-- Main melody notes -->
    <ellipse cx="160" cy="90" rx="4" ry="3"/>
    <line x1="164" y1="90" x2="164" y2="70" stroke="#000000" stroke-width="1"/>
    
    <ellipse cx="180" cy="100" rx="4" ry="3"/>
    <line x1="184" y1="100" x2="184" y2="80" stroke="#000000" stroke-width="1"/>
    
    <ellipse cx="200" cy="90" rx="4" ry="3"/>
    <line x1="204" y1="90" x2="204" y2="70" stroke="#000000" stroke-width="1"/>
    
    <ellipse cx="220" cy="100" rx="4" ry="3"/>
    <line x1="224" y1="100" x2="224" y2="80" stroke="#000000" stroke-width="1"/>
  </g>
  
  <!-- Slurs and Ties -->
  <g stroke="#000000" stroke-width="1" fill="none">
    <!-- Slur over first phrase -->
    <path d="M 140 75 Q 180 65 220 75"/>
    
    <!-- Slur over second phrase -->
    <path d="M 240 75 Q 280 65 320 75"/>
  </g>
  
  <!-- More notes continuing the melody -->
  <g fill="#000000">
    <ellipse cx="240" cy="110" rx="4" ry="3"/>
    <line x1="244" y1="110" x2="244" y2="90" stroke="#000000" stroke-width="1"/>
    
    <ellipse cx="260" cy="100" rx="4" ry="3"/>
    <line x1="264" y1="100" x2="264" y2="80" stroke="#000000" stroke-width="1"/>
    
    <ellipse cx="280" cy="90" rx="4" ry="3"/>
    <line x1="284" y1="90" x2="284" y2="70" stroke="#000000" stroke-width="1"/>
    
    <ellipse cx="300" cy="100" rx="4" ry="3"/>
    <line x1="304" y1="100" x2="304" y2="80" stroke="#000000" stroke-width="1"/>
    
    <!-- Half note -->
    <ellipse cx="320" cy="110" rx="4" ry="3" fill="none" stroke="#000000" stroke-width="1"/>
    <line x1="324" y1="110" x2="324" y2="90" stroke="#000000" stroke-width="1"/>
  </g>
  
  <!-- Bar Lines -->
  <g stroke="#000000" stroke-width="1">
    <line x1="350" y1="80" x2="350" y2="120"/>
    <line x1="350" y1="180" x2="350" y2="220"/>
    <line x1="350" y1="280" x2="350" y2="320"/>
    <line x1="350" y1="380" x2="350" y2="420"/>
    
    <line x1="550" y1="80" x2="550" y2="120"/>
    <line x1="550" y1="180" x2="550" y2="220"/>
    <line x1="550" y1="280" x2="550" y2="320"/>
    <line x1="550" y1="380" x2="550" y2="420"/>
  </g>
  
  <!-- Second System - Bar 6 onwards -->
  <g fill="#000000">
    <!-- Continuing melody with ornaments -->
    <ellipse cx="370" cy="100" rx="4" ry="3"/>
    <line x1="374" y1="100" x2="374" y2="80" stroke="#000000" stroke-width="1"/>
    
    <!-- Turn ornament indicator -->
    <text x="370" y="70" font-family="serif" font-size="12">tr</text>
    
    <ellipse cx="390" cy="90" rx="4" ry="3"/>
    <line x1="394" y1="90" x2="394" y2="70" stroke="#000000" stroke-width="1"/>
    
    <ellipse cx="410" cy="100" rx="4" ry="3"/>
    <line x1="414" y1="100" x2="414" y2="80" stroke="#000000" stroke-width="1"/>
    
    <ellipse cx="430" cy="90" rx="4" ry="3"/>
    <line x1="434" y1="90" x2="434" y2="70" stroke="#000000" stroke-width="1"/>
    
    <!-- Interval of a third -->
    <ellipse cx="450" cy="80" rx="4" ry="3"/>
    <line x1="454" y1="80" x2="454" y2="60" stroke="#000000" stroke-width="1"/>
    
    <ellipse cx="470" cy="100" rx="4" ry="3"/>
    <line x1="474" y1="100" x2="474" y2="80" stroke="#000000" stroke-width="1"/>
  </g>
  
  <!-- Bar 12-14 - Melodic Device Section -->
  <g fill="#000000">
    <!-- Bar 12 -->
    <ellipse cx="570" cy="110" rx="4" ry="3" fill="none" stroke="#000000" stroke-width="1"/>
    <line x1="574" y1="110" x2="574" y2="90" stroke="#000000" stroke-width="1"/>
    
    <!-- Melodic Device label -->
    <rect x="570" y="50" width="120" height="20" fill="none" stroke="#000000" stroke-width="1"/>
    <text x="630" y="63" font-family="Arial" font-size="12" text-anchor="middle">Melodic Device</text>
    
    <!-- Bar 13 - Conjunct movement -->
    <ellipse cx="590" cy="100" rx="4" ry="3"/>
    <line x1="594" y1="100" x2="594" y2="80" stroke="#000000" stroke-width="1"/>
    
    <ellipse cx="610" cy="90" rx="4" ry="3"/>
    <line x1="614" y1="90" x2="614" y2="70" stroke="#000000" stroke-width="1"/>
    
    <ellipse cx="630" cy="100" rx="4" ry="3"/>
    <line x1="634" y1="100" x2="634" y2="80" stroke="#000000" stroke-width="1"/>
    
    <ellipse cx="650" cy="90" rx="4" ry="3"/>
    <line x1="654" y1="90" x2="654" y2="70" stroke="#000000" stroke-width="1"/>
    
    <!-- Bar 14 -->
    <ellipse cx="670" cy="100" rx="4" ry="3"/>
    <line x1="674" y1="100" x2="674" y2="80" stroke="#000000" stroke-width="1"/>
    
    <ellipse cx="690" cy="110" rx="4" ry="3" fill="none" stroke="#000000" stroke-width="1"/>
    <line x1="694" y1="110" x2="694" y2="90" stroke="#000000" stroke-width="1"/>
  </g>
  
  <!-- Dynamic markings -->
  <g fill="#000000" font-family="serif" font-style="italic">
    <text x="350" y="140" font-size="14">p</text>
    <text x="680" y="140" font-size="14">sf</text>
  </g>
  
  <!-- Slurs for phrasing -->
  <g stroke="#000000" stroke-width="1" fill="none">
    <path d="M 370 75 Q 410 65 450 75"/>
    <path d="M 470 75 Q 510 65 550 75"/>
    <path d="M 570 75 Q 610 65 650 75"/>
  </g>
  
  <!-- Bar numbers -->
  <g fill="#666666" font-family="Arial" font-size="10">
    <text x="140" y="45">1</text>
    <text x="240" y="45">6</text>
    <text x="370" y="45">12</text>
    <text x="570" y="45">17</text>
  </g>
  
  <!-- Final bar line -->
  <g stroke="#000000" stroke-width="2">
    <line x1="720" y1="80" x2="720" y2="120"/>
    <line x1="725" y1="80" x2="725" y2="120"/>
  </g>
  
  <!-- Title -->
  <text x="400" y="30" font-family="serif" font-size="18" text-anchor="middle" fill="#000000">
    Haydn - String Quartet in C Major, Op. 76 "Emperor's Hymn"
  </text>
</svg>